<svg xmlns="http://www.w3.org/2000/svg" width="287.448" height="196.235" viewBox="0 0 287.448 196.235"><g transform="translate(-178.747 -2722.708)"><path d="M28.922,86.474a21.166,21.166,0,0,1-2.853.193H21a21,21,0,0,1-21-21V25.444a21,21,0,0,1,21-21h5.069q.817,0,1.618.061A18.492,18.492,0,0,1,58.275,18.491V20H59a6,6,0,0,1,6,6V62.888a6,6,0,0,1-6,6h-.724v2.62A18.492,18.492,0,0,1,28.922,86.474Z" transform="translate(359.196 2827.942)" fill="none" stroke="#333" stroke-width="2"/><path d="M27.163,85.478c-.6.051-1.206.077-1.818.077H21a21,21,0,0,1-21-21V24.333a21,21,0,0,1,21-21h4.345a21.2,21.2,0,0,1,3.024.216A18.209,18.209,0,0,1,57.38,18.207v2.9H58a6,6,0,0,1,6,6V64a6,6,0,0,1-6,6h-.62v1.794A18.208,18.208,0,0,1,27.163,85.478Z" transform="translate(282.196 2917.942) rotate(180)" fill="none" stroke="#333" stroke-width="2"/><path d="M15201.328,5488.5c86.053,0,96.309,61.115,96.309,76.116v47.909" transform="translate(-14880.073 -2764.792)" fill="none" stroke="#333" stroke-width="2"/><path d="M15298.816,5488.5c-87.1,0-97.486,61.115-97.486,76.116v47.909" transform="translate(-14976.447 -2764.792)" fill="none" stroke="#333" stroke-width="2"/><path d="M15191.572,5488.5c75.053,0,88.906,53.3,88.906,66.388,0,7.667-4.07,15.094-7.627,20.2" transform="translate(-14869.585 -2752.014)" fill="none" stroke="#333" stroke-linecap="round" stroke-linejoin="round" stroke-width="2"/><path d="M15281.737,5488.5c-76.115,0-90.166,53.3-90.166,66.388,0,7.667,4.127,15.094,7.734,20.2" transform="translate(-14960.094 -2752.014)" fill="none" stroke="#333" stroke-linecap="round" stroke-linejoin="round" stroke-width="2"/><path d="M15261.333,5586.667v67.412" transform="translate(-14874.516 -2753.878)" fill="none" stroke="#333" stroke-linecap="round" stroke-width="2"/><path d="M15261.333,5586.667v67.413" transform="translate(-15005.237 -2753.877)" fill="none" stroke="#333" stroke-linecap="round" stroke-width="2"/><path d="M15348,3968s4.592,5.368,4.592,14.858a26.746,26.746,0,0,1-4.592,15.4" transform="translate(-14900.136 -1115.008)" fill="none" stroke="#333" stroke-linecap="round" stroke-linejoin="round" stroke-width="2"/><path d="M0,0S4.592,5.368,4.592,14.858A26.746,26.746,0,0,1,0,30.257" transform="translate(197.078 2883.25) rotate(180)" fill="none" stroke="#333" stroke-linecap="round" stroke-linejoin="round" stroke-width="2"/><path d="M15348,3968s7.377,8.629,7.377,23.88-7.377,24.748-7.377,24.748" transform="translate(-14890.185 -1124.193)" fill="none" stroke="#333" stroke-linecap="round" stroke-linejoin="round" stroke-width="2"/><path d="M0,0S7.377,8.629,7.377,23.88,0,48.628,0,48.628" transform="translate(187.124 2892.435) rotate(180)" fill="none" stroke="#333" stroke-linecap="round" stroke-linejoin="round" stroke-width="2"/><path d="M15101.85,5543.984h82.186l4.568,13.706,7.92-38.986,10.963,52.692,13.1-84.063,17.971,56.651h40.492" transform="translate(-14869.337 -2734.479)" fill="none" stroke="#333" stroke-linecap="round" stroke-linejoin="round" stroke-width="2"/><path d="M15142.346,5561.75H15107.5" transform="translate(-14917.462 -2751.71)" fill="none" stroke="#333" stroke-linecap="round" stroke-width="2"/><path d="M15142.346,5561.75H15107.5" transform="translate(-14687.836 -2751.71)" fill="none" stroke="#333" stroke-linecap="round" stroke-width="2"/></g></svg>