<svg xmlns="http://www.w3.org/2000/svg" width="504.16" height="442.058" viewBox="0 0 504.16 442.058"><g transform="translate(-190.869 -1272.356)"><g transform="translate(487.548 1272.356) rotate(30)" fill="none" stroke="#eee" stroke-width="2"><rect width="213.357" height="376.513" rx="10" stroke="none"/><rect x="1" y="1" width="211.357" height="374.513" rx="9" fill="none"/></g><g transform="translate(380.102 1603.724) rotate(30)" fill="none" stroke="#eee" stroke-width="2"><rect width="74.162" height="18.255" rx="9.128" stroke="none"/><rect x="1" y="1" width="72.162" height="16.255" rx="8.128" fill="none"/></g><path d="M4553.947,4462.178s7.562-64.524-54.947-124.511" transform="translate(-3905.083 -2749.254)" fill="none" stroke="#eee" stroke-width="2"/><path d="M4499.294,4441.057s-3.218-26.76,11.76-62.163" transform="translate(-4178.016 -2728.132)" fill="none" stroke="#eee" stroke-width="2"/><path d="M4499,4362.709V4337h23.692" transform="translate(-3905.083 -2749.595)" fill="none" stroke="#eee" stroke-width="2"/><path d="M0,25.709V0H23.693" transform="translate(320.738 1713) rotate(-135)" fill="none" stroke="#eee" stroke-width="2"/><path d="M4304.933,4319.663h-108.39s-32.517-1.711-22.819-36.51,49.631-25.1,58.188-19.966-30.236-77.585,25.671-118.659,104.4,0,104.4,0,5.011-44.691,65.6-35.369l69.7,40.494" transform="translate(-3980 -2764.188)" fill="none" stroke="#eee" stroke-width="2"/><path d="M4372.612,4294.708h107.819s15.973-.537,15.973-19.966-18.825-21.108-24.53-15.973c-.57-10.839-4.563-25.672-30.235-31.947s-31.376,0-31.376,0l-114.421-62.952,35.413-57.976" transform="translate(-3802.376 -2739.233)" fill="none" stroke="#eee" stroke-width="2"/><path d="M4285.449,4298l179.758,106.364" transform="translate(-3959.434 -2741.954)" fill="none" stroke="#eee" stroke-width="2"/><path d="M4240.283,4231.406s-14.262-37.651,0-55.906" transform="translate(-3971.258 -2754.656)" fill="none" stroke="#eee" stroke-width="2"/><text transform="translate(382 1466)" fill="#eee" font-size="57" font-family="BreeSerif-Regular, Bree Serif"><tspan x="-93.651" y="0">Co2</tspan></text><g transform="translate(526 1353)" fill="none" stroke="#eee" stroke-width="2"><circle cx="7.5" cy="7.5" r="7.5" stroke="none"/><circle cx="7.5" cy="7.5" r="6.5" fill="none"/></g><g transform="translate(528 1500)" fill="none" stroke="#eee" stroke-width="2"><circle cx="7.5" cy="7.5" r="7.5" stroke="none"/><circle cx="7.5" cy="7.5" r="6.5" fill="none"/></g><g transform="translate(448 1546)" fill="none" stroke="#eee" stroke-width="2"><circle cx="7.5" cy="7.5" r="7.5" stroke="none"/><circle cx="7.5" cy="7.5" r="6.5" fill="none"/></g><path d="M4517.9,4224l-64.4,107.176" transform="translate(-3996.856 -2783.694)" fill="none" stroke="#eee" stroke-width="2"/><path d="M4477.474,4224l-23.974,39.9" transform="translate(-3916.004 -2762.071)" fill="none" stroke="#eee" stroke-width="2"/></g></svg>