<svg xmlns="http://www.w3.org/2000/svg" width="340.799" height="285.322" viewBox="0 0 340.799 285.322"><g transform="translate(-259 -1443)"><path d="M5,0H222a5,5,0,0,1,5,5V91.351s10.75,12.4,12.125,23.524C242.5,113,248,109.75,248,109.75s6-3.875,10,3.625-1,10.875-1,10.875l-9,5.625L224.625,143.25l2.375.882v65.333l4.667,8.618s-7.584,4.583-15.994,8.917H5a5,5,0,0,1-5-5V5A5,5,0,0,1,5,0Z" transform="translate(260 1444)" fill="none" stroke="#eee" stroke-width="2"/><path d="M5,0H118a5,5,0,0,1,5,5V9.8L110.333,17,123,64.573V118a5,5,0,0,1-5,5H5a5,5,0,0,1-5-5V5A5,5,0,0,1,5,0Z" transform="translate(312 1496)" fill="none" stroke="#eee" stroke-width="2"/><rect width="49" height="12" rx="5" transform="translate(411 1459)" fill="none" stroke="#eee" stroke-width="2"/><rect width="49" height="4" rx="2" transform="translate(411 1477)" fill="none" stroke="#eee" stroke-width="2"/><rect width="29" height="12" transform="translate(287.5 1497.5) rotate(-90)" fill="none" stroke="#eee" stroke-width="2"/><rect width="49" height="12" rx="5" transform="translate(295 1642)" fill="none" stroke="#eee" stroke-width="2"/><path d="M1,0H8A1,1,0,0,1,9,1V6A0,0,0,0,1,9,6H0A0,0,0,0,1,0,6V1A1,1,0,0,1,1,0Z" transform="translate(388 1490)" fill="none" stroke="#eee" stroke-width="2"/><path d="M1,0H8A1,1,0,0,1,9,1V6A0,0,0,0,1,9,6H0A0,0,0,0,1,0,6V1A1,1,0,0,1,1,0Z" transform="translate(359 1625) rotate(180)" fill="none" stroke="#eee" stroke-width="2"/><path d="M1,0H8A1,1,0,0,1,9,1V6A0,0,0,0,1,9,6H0A0,0,0,0,1,0,6V1A1,1,0,0,1,1,0Z" transform="translate(305.5 1543.5) rotate(-90)" fill="none" stroke="#eee" stroke-width="2"/><path d="M1,0H8A1,1,0,0,1,9,1V6A0,0,0,0,1,9,6H0A0,0,0,0,1,0,6V1A1,1,0,0,1,1,0Z" transform="translate(369 1490)" fill="none" stroke="#eee" stroke-width="2"/><path d="M1,0H8A1,1,0,0,1,9,1V6A0,0,0,0,1,9,6H0A0,0,0,0,1,0,6V1A1,1,0,0,1,1,0Z" transform="translate(378 1625) rotate(180)" fill="none" stroke="#eee" stroke-width="2"/><path d="M1,0H8A1,1,0,0,1,9,1V6A0,0,0,0,1,9,6H0A0,0,0,0,1,0,6V1A1,1,0,0,1,1,0Z" transform="translate(305.5 1562.5) rotate(-90)" fill="none" stroke="#eee" stroke-width="2"/><path d="M1,0H8A1,1,0,0,1,9,1V6A0,0,0,0,1,9,6H0A0,0,0,0,1,0,6V1A1,1,0,0,1,1,0Z" transform="translate(350 1490)" fill="none" stroke="#eee" stroke-width="2"/><path d="M1,0H8A1,1,0,0,1,9,1V6A0,0,0,0,1,9,6H0A0,0,0,0,1,0,6V1A1,1,0,0,1,1,0Z" transform="translate(397 1625) rotate(180)" fill="none" stroke="#eee" stroke-width="2"/><path d="M1,0H8A1,1,0,0,1,9,1V6A0,0,0,0,1,9,6H0A0,0,0,0,1,0,6V1A1,1,0,0,1,1,0Z" transform="translate(305.5 1581.5) rotate(-90)" fill="none" stroke="#eee" stroke-width="2"/><path d="M1,0H8A1,1,0,0,1,9,1V6A0,0,0,0,1,9,6H0A0,0,0,0,1,0,6V1A1,1,0,0,1,1,0Z" transform="translate(331 1490)" fill="none" stroke="#eee" stroke-width="2"/><path d="M1,0H8A1,1,0,0,1,9,1V6A0,0,0,0,1,9,6H0A0,0,0,0,1,0,6V1A1,1,0,0,1,1,0Z" transform="translate(416 1625) rotate(180)" fill="none" stroke="#eee" stroke-width="2"/><path d="M1,0H8A1,1,0,0,1,9,1V6A0,0,0,0,1,9,6H0A0,0,0,0,1,0,6V1A1,1,0,0,1,1,0Z" transform="translate(305.5 1600.5) rotate(-90)" fill="none" stroke="#eee" stroke-width="2"/><path d="M1,0H8A1,1,0,0,1,9,1V6A0,0,0,0,1,9,6H0A0,0,0,0,1,0,6V1A1,1,0,0,1,1,0Z" transform="translate(407 1490)" fill="none" stroke="#eee" stroke-width="2"/><path d="M1,0H8A1,1,0,0,1,9,1V6A0,0,0,0,1,9,6H0A0,0,0,0,1,0,6V1A1,1,0,0,1,1,0Z" transform="translate(340 1625) rotate(180)" fill="none" stroke="#eee" stroke-width="2"/><path d="M1,0H8A1,1,0,0,1,9,1V6A0,0,0,0,1,9,6H0A0,0,0,0,1,0,6V1A1,1,0,0,1,1,0Z" transform="translate(305.5 1524.5) rotate(-90)" fill="none" stroke="#eee" stroke-width="2"/><g transform="translate(-432.243 267.311) rotate(-30)"><path d="M13025.27,4356.729V4336.36s9.98-7.129,9.98-12.832-11-13.036-11-13.036v-31.367h16.906l10.8,38.089s8.961,22,2.645,39.515C13041.563,4356.932,13025.27,4356.729,13025.27,4356.729Z" transform="translate(-12893.67 -2773)" fill="none" stroke="#eee" stroke-width="2"/><path d="M13052.5,4356.729V4336.36s-8.93-7.129-8.93-12.832,9.84-13.036,9.84-13.036v-31.367h-15.121l-9.66,38.089s-8.016,22-2.367,39.515C13037.926,4356.932,13052.5,4356.729,13052.5,4356.729Z" transform="translate(-12921.225 -2773)" fill="none" stroke="#eee" stroke-width="2"/><path d="M13051.781,4308.38l11.68,13.7s11.406,11.665,11.406,23.627.32,30.586.32,30.586h-20.1s-.32-21.642-.32-25.97.918-10.948-6.52-21.455-23.082-20.489-23.082-20.489" transform="translate(-12891.6 -2706.917)" fill="none" stroke="#eee" stroke-width="2"/><path d="M13046.109,4308.38l-10.449,13.7s-10.2,11.665-10.2,23.627-.289,30.586-.289,30.586h17.98s.289-21.642.289-25.97-.82-10.948,5.828-21.455,20.652-20.489,20.652-20.489" transform="translate(-12940.397 -2706.917)" fill="none" stroke="#eee" stroke-width="2"/><path d="M13031.926,4344.628h35.3v-7.062s1.637-9.232-8.418-9.232h-18.773c-8.508,0-8.117,8.731-8.117,8.731Z" transform="translate(-12876.358 -2658.583)" fill="none" stroke="#eee" stroke-linecap="round" stroke-linejoin="round" stroke-width="2"/><path d="M13063.586,4344.628H13032v-7.062s-1.465-9.232,7.531-9.232h16.8c7.613,0,7.262,8.731,7.262,8.731Z" transform="translate(-12953.748 -2658.583)" fill="none" stroke="#eee" stroke-linecap="round" stroke-linejoin="round" stroke-width="2"/><path d="M0,.344H35.412V26.924A17.816,17.816,0,0,1,17.706,44.848,17.816,17.816,0,0,1,0,26.924Z" transform="translate(155.557 1685.735)" fill="none" stroke="#eee" stroke-linejoin="round" stroke-width="2"/><path d="M31.681.344H0V26.924c0,9.9,7.092,17.924,15.84,17.924s15.84-8.025,15.84-17.924Z" transform="translate(78.167 1685.735)" fill="none" stroke="#eee" stroke-linejoin="round" stroke-width="2"/><path d="M-13198-2721.653h-37.274l0-.016c-9.89,0-34.813.016-34.813.016s-7.658.743-7.658-9.37,10.391-7.828,10.391-7.828h66.3s11.61-2.286,11.61,7.828c0,8.818-6.5,9.383-8.169,9.383C-13197.862-2721.641-13198-2721.653-13198-2721.653Z" transform="translate(13367.486 4323.102)" fill="none" stroke="#eee" stroke-width="2"/></g><path d="M13274,4421h8.375" transform="translate(-12930 -2773)" fill="none" stroke="#eee" stroke-width="2"/><path d="M13274,4421h8.375" transform="translate(-12987 -2773)" fill="none" stroke="#eee" stroke-width="2"/><g transform="translate(350 1645)" fill="#eee" stroke="#fff" stroke-width="1"><circle cx="3" cy="3" r="3" stroke="none"/><circle cx="3" cy="3" r="2.5" fill="none"/></g><g transform="translate(382 1653)" fill="#eee" stroke="#fff" stroke-width="1"><circle cx="3" cy="3" r="3" stroke="none"/><circle cx="3" cy="3" r="2.5" fill="none"/></g><g transform="translate(375 1465) rotate(180)" fill="#eee" stroke="#fff" stroke-width="1"><circle cx="3" cy="3" r="3" stroke="none"/><circle cx="3" cy="3" r="2.5" fill="none"/></g><g transform="translate(429 1639)" fill="#eee" stroke="#fff" stroke-width="1"><circle cx="3" cy="3" r="3" stroke="none"/><circle cx="3" cy="3" r="2.5" fill="none"/></g><g transform="translate(328 1479) rotate(180)" fill="#eee" stroke="#fff" stroke-width="1"><circle cx="3" cy="3" r="3" stroke="none"/><circle cx="3" cy="3" r="2.5" fill="none"/></g><g transform="translate(323 1507)" fill="#eee" stroke="#fff" stroke-width="1"><circle cx="4.5" cy="4.5" r="4.5" stroke="none"/><circle cx="4.5" cy="4.5" r="4" fill="none"/></g><g transform="translate(285 1645)" fill="#eee" stroke="#fff" stroke-width="1"><circle cx="3" cy="3" r="3" stroke="none"/><circle cx="3" cy="3" r="2.5" fill="none"/></g><g transform="translate(276 1526)" fill="#eee" stroke="#fff" stroke-width="1"><circle cx="3" cy="3" r="3" stroke="none"/><circle cx="3" cy="3" r="2.5" fill="none"/></g><path d="M13315.333,4429.333h20v-14H13362" transform="translate(-12930 -2773)" fill="none" stroke="#eee" stroke-linecap="round" stroke-linejoin="round" stroke-width="2"/><path d="M13315.333,4429.333h20v-14H13362" transform="translate(13687 5891) rotate(180)" fill="none" stroke="#eee" stroke-linecap="round" stroke-linejoin="round" stroke-width="2"/><path d="M13223.5,4263v17.333h-14.167V4302" transform="translate(-12930 -2773)" fill="none" stroke="#eee" stroke-linecap="round" stroke-linejoin="round" stroke-width="2"/><path d="M13209,4319.618v84.419" transform="translate(-12930 -2773)" fill="none" stroke="#eee" stroke-linecap="round" stroke-width="2"/><path d="M13209,4319.618v84.419" transform="translate(-12922 -2773)" fill="none" stroke="#eee" stroke-linecap="round" stroke-width="2"/><path d="M13209,4319.618v84.419" transform="translate(-12914 -2773)" fill="none" stroke="#eee" stroke-linecap="round" stroke-width="2"/></g></svg>