<svg xmlns="http://www.w3.org/2000/svg" width="1079" height="656" viewBox="0 0 1079 656"><g transform="translate(-6669.986 -8391)"><rect width="1077" height="654" stroke-width="2" fill="none" stroke="#eee" stroke-linejoin="round" transform="translate(6670.986 8392)"/><rect width="723" height="41" rx="20.5" stroke-width="2" fill="none" stroke="#eee" stroke-linejoin="round" transform="translate(6809.986 8454)"/><path d="M6626,8336.5c8.306,0,7.183,14.665,7.183,14.665v23.691c0,8.648,9.944,11.282,9.944,11.282h697.69" transform="translate(405.383 55.5)" fill="none" stroke="#eee" stroke-linejoin="round" stroke-width="2"/><path d="M6648.143,8349v13.865h17.591V8349Z" transform="translate(51.867 62.958)" fill="none" stroke="#eee" stroke-linejoin="round" stroke-width="2"/><path d="M6648.143,8349v12.107h13.738V8349Z" transform="translate(177.002 121.446)" fill="none" stroke="#eee" stroke-linejoin="round" stroke-width="2"/><path d="M6651.25,8350.2s-.121-3.863,2.536-3.863h3.742s2.414-.12,2.656,3.863" transform="translate(53.261 61.523)" fill="none" stroke="#eee" stroke-linejoin="round" stroke-width="2"/><path d="M6651.25,8350.2s-.121-3.863,2.536-3.863h3.742s2.414-.12,2.656,3.863" transform="translate(176.394 120.025)" fill="none" stroke="#eee" stroke-linejoin="round" stroke-width="2"/><path d="M6672,8353h225.48" transform="translate(72.236 65.077)" fill="none" stroke="#eee" stroke-width="2"/><path d="M6854.75,8350l11.228,11.59" transform="translate(143.276 62.282)" fill="none" stroke="#eee" stroke-width="2"/><path d="M0,0,11.228,11.59" transform="translate(7009.435 8412.463) rotate(90)" fill="none" stroke="#eee" stroke-width="2"/><circle cx="12" cy="12" r="12" transform="translate(7654.986 8461)" fill="none" stroke="#eee" stroke-linejoin="round" stroke-width="2"/><ellipse cx="3" cy="3.5" rx="3" ry="3.5" transform="translate(7711.986 8458)" fill="none" stroke="#eee" stroke-linejoin="round" stroke-width="2"/><circle cx="3" cy="3" r="3" transform="translate(7711.986 8470)" fill="none" stroke="#eee" stroke-linejoin="round" stroke-width="2"/><circle cx="3" cy="3" r="3" transform="translate(7711.986 8482)" fill="none" stroke="#eee" stroke-linejoin="round" stroke-width="2"/><path d="M6854.75,8350l11.228,11.59" transform="translate(862.61 62.282)" fill="none" stroke="#eee" stroke-width="2"/><path d="M0,0,11.228,11.59" transform="translate(7728.769 8412.463) rotate(90)" fill="none" stroke="#eee" stroke-width="2"/><rect width="12" height="12" stroke-width="2" fill="none" stroke="#eee" stroke-linejoin="round" transform="translate(7668.986 8415)"/><rect width="12" height="11" stroke-width="2" fill="none" stroke="#eee" stroke-linejoin="round" transform="translate(7674.986 8410)"/><rect width="23" height="23" stroke-width="2" fill="none" stroke="#eee" stroke-linejoin="round" transform="translate(7605.986 8463)"/><rect width="23" height="23" stroke-width="2" fill="none" stroke="#eee" stroke-linejoin="round" transform="translate(7556.986 8463)"/><rect width="1077" height="69" stroke-width="2" fill="none" stroke="#eee" stroke-linejoin="round" transform="translate(6670.986 8510)"/><rect width="118" height="467" stroke-width="2" fill="none" stroke="#eee" stroke-linejoin="round" transform="translate(6804.986 8579)"/><path d="M8374.663,8387.595l3.478-5.795,2.9,5.795h6.663l-5.124,5.632,1.938,7.7-6.374-4.926-6.7,4.926,2.083-7.7-5.522-5.632Z" transform="translate(-874.351 83.794)" fill="none" stroke="#eee" stroke-linejoin="round" stroke-width="2"/><path d="M6626,8385.031s16.945-2.575,16.945-11.03v-23.162s-1.914-14.339,12.238-14.339" transform="translate(45.239 55.5)" fill="none" stroke="#eee" stroke-linejoin="round" stroke-width="2"/><path d="M6854.75,8350l11.228,11.59" transform="translate(143.276 62.282)" fill="none" stroke="#eee" stroke-width="2"/><path d="M0,0,11.228,11.59" transform="translate(7072.33 8410.009) rotate(45)" fill="none" stroke="#eee" stroke-width="2"/><path d="M0,0,11.228,11.59" transform="translate(7009.435 8412.463) rotate(90)" fill="none" stroke="#eee" stroke-width="2"/><path d="M0,0,11.228,11.59" transform="translate(7080.271 8418.203) rotate(135)" fill="none" stroke="#eee" stroke-width="2"/><path d="M7006.333,8512v37.452h42.188V8512Z" transform="translate(-181.453 13.116)" fill="none" stroke="#eee" stroke-width="2"/><path d="M6724.75,8437.5l10.083,10.083-10.083,10.083" transform="translate(18.007 28.514)" fill="none" stroke="#eee" stroke-width="2"/><path d="M0,0,10.083,10.083,0,20.166" transform="translate(6702.888 8486.18) rotate(180)" fill="none" stroke="#eee" stroke-width="2"/><path d="M6718.883,8444.126h19.5" transform="translate(13.81 31.971)" fill="none" stroke="#eee" stroke-width="2"/><path d="M0,0H19.5" transform="translate(6712.953 8476.096) rotate(180)" fill="none" stroke="#eee" stroke-width="2"/><path d="M6771.353,8445.154c-.66-1.449-2.563-6.954-10.463-6.954-7.443.083-9.682,6.069-9.734,10.13s1.718,7.5,6.507,8.692,10.1-.364,12.6-5" transform="translate(21.516 28.439)" fill="none" stroke="#eee" stroke-width="2"/><path d="M6759.468,8445.578h6.819v-7.547" transform="translate(27.05 28.327)" fill="none" stroke="#eee" stroke-width="2"/><text transform="translate(6888.986 8555)" fill="#333" font-size="35" font-family="BreeSerif-Regular, Bree Serif"><tspan x="0" y="0">web app store</tspan></text><rect width="520" height="149" stroke-width="2" fill="none" stroke="#eee" stroke-linejoin="round" transform="translate(7017.986 8612)"/><path d="M8147,8721.333l6.272,6.272-6.272,6.273" transform="translate(-566.718 -29.811)" fill="none" stroke="#eee" stroke-width="2"/><path d="M0,0,6.272,6.273,0,12.545" transform="translate(6975.258 8704.066) rotate(180)" fill="none" stroke="#eee" stroke-width="2"/><circle cx="4" cy="4" r="4" transform="translate(7242.986 8777)" fill="#eee"/><g transform="translate(7256.986 8777)" fill="none" stroke="#eee" stroke-width="2"><circle cx="4" cy="4" r="4" stroke="none"/><circle cx="4" cy="4" r="3" fill="none"/></g><g transform="translate(7270.986 8777)" fill="none" stroke="#eee" stroke-width="2"><ellipse cx="3.5" cy="4" rx="3.5" ry="4" stroke="none"/><ellipse cx="3.5" cy="4" rx="2.5" ry="3" fill="none"/></g><g transform="translate(7284.986 8777)" fill="none" stroke="#eee" stroke-width="2"><ellipse cx="3.5" cy="4" rx="3.5" ry="4" stroke="none"/><ellipse cx="3.5" cy="4" rx="2.5" ry="3" fill="none"/></g><g transform="translate(7297.986 8777)" fill="none" stroke="#eee" stroke-width="2"><circle cx="4" cy="4" r="4" stroke="none"/><circle cx="4" cy="4" r="3" fill="none"/></g><path d="M579.333,5045h69.333" transform="translate(6248.986 3561)" fill="none" stroke="#eee" stroke-width="2"/><path d="M579.333,5045H624" transform="translate(6248.986 3591)" fill="none" stroke="#eee" stroke-width="2"/><path d="M579.333,5045h69.333" transform="translate(6248.986 3621)" fill="none" stroke="#eee" stroke-width="2"/><path d="M579.333,5045H634" transform="translate(6248.986 3651)" fill="none" stroke="#eee" stroke-width="2"/><path d="M579.333,5045h30" transform="translate(6248.986 3681)" fill="none" stroke="#eee" stroke-width="2"/></g></svg>