<svg xmlns="http://www.w3.org/2000/svg" width="279.028" height="224.98" viewBox="0 0 279.028 224.98"><g transform="translate(-821.667 -4062.125)"><path d="M14143.334,7088.272v-39.3s1.727-51.356,38.059-53.778c14.119-.94,2.771-54.069,22.525-57.617.953-.175,3.949.287,3.949,6.489,0,15.675.994,28.046-1.406,47.653s-8.191,21.581-8.191,30.777" transform="translate(-13127.615 -2802.272)" fill="none" stroke="#333" stroke-linecap="round" stroke-linejoin="round" stroke-width="2"/><path d="M14208.07,7088.272v-39.3s-1.727-51.356-38.059-53.778c-14.119-.94-2.771-54.069-22.525-57.617-.953-.175-3.949.287-3.949,6.489,0,15.675-.994,28.046,1.406,47.653s8.191,21.581,8.191,30.777" transform="translate(-13302.256 -2802.272)" fill="none" stroke="#333" stroke-linecap="round" stroke-linejoin="round" stroke-width="2"/><path d="M14180.948,7096.479s-.52-4.592,5.529-17.374,18.662-33.756,18.662-33.756,13.107-26.271,13.107-49.145c0-31.739-5.709-71.483-7.2-82.4s-3.258-11.037-5.91-9.741c-3.971,1.928-10.174,6.921-10.174,18.263v23.639" transform="translate(-13118.552 -2810.48)" fill="none" stroke="#333" stroke-linecap="round" stroke-linejoin="round" stroke-width="2"/><path d="M14218.236,7096.479s.518-4.592-5.529-17.374-18.662-33.756-18.662-33.756-13.107-26.271-13.107-49.145c0-31.739,5.709-71.483,7.2-82.4s3.258-11.037,5.91-9.741c3.971,1.928,10.174,6.921,10.174,18.263v23.639" transform="translate(-13358.271 -2810.48)" fill="none" stroke="#333" stroke-linecap="round" stroke-linejoin="round" stroke-width="2"/><path d="M14197.4,6913.244l-1.738-10.673s-.742-5.461-5.211-4.964-12.41,12.162-10.176,26.062,4.98,25.492,2.746,43.115" transform="translate(-13118.805 -2811.908)" fill="none" stroke="#333" stroke-linecap="round" stroke-linejoin="round" stroke-width="2"/><path d="M14180.011,6912.658l1.614-10.087s.744-5.461,5.211-4.964,12.41,12.162,10.178,26.062-5.61,25.179-3.378,42.8" transform="translate(-13336.386 -2811.908)" fill="none" stroke="#333" stroke-linecap="round" stroke-linejoin="round" stroke-width="2"/><path d="M14195.886,6910.8l-1.606-9.013s-.627-4.6-4.391-4.181-10.453,10.245-8.572,21.953,9.246,38.684-6,69" transform="translate(-13133.417 -2792.796)" fill="none" stroke="#333" stroke-linecap="round" stroke-linejoin="round" stroke-width="2"/><path d="M14175.316,6910.774l1.465-8.991s.627-4.6,4.391-4.181,10.453,10.245,8.572,21.953-9.248,38.684,6,69" transform="translate(-13315.767 -2792.796)" fill="none" stroke="#333" stroke-linecap="round" stroke-linejoin="round" stroke-width="2"/><path d="M14170.933,6982.009s-.844-21.421-4.213-31.173-1.092-21.325,3.182-22.39" transform="translate(-13122.339 -2804.54)" fill="none" stroke="#333" stroke-linecap="round" stroke-linejoin="round" stroke-width="2"/><path d="M14164.932,6982.915s.631-22.327,4-32.079,1.271-21.044-3-22.108" transform="translate(-13291.494 -2804.54)" fill="none" stroke="#333" stroke-linecap="round" stroke-linejoin="round" stroke-width="2"/><rect width="44" height="44" transform="translate(929.887 4162) rotate(-45)" stroke-width="2" stroke="#333" stroke-linecap="round" stroke-linejoin="round" fill="none"/><path d="M13763.167,6851.25V6897" transform="translate(-12802 -2776)" fill="none" stroke="#333" stroke-linecap="round" stroke-width="2"/><path d="M13763.167,6851.25V6897" transform="translate(14724.251 11099.125) rotate(180)" fill="none" stroke="#333" stroke-linecap="round" stroke-width="2"/><path d="M13763.167,6851.25v5.875" transform="translate(14724.251 11111.25) rotate(180)" fill="none" stroke="#333" stroke-linecap="round" stroke-width="2"/><path d="M13763.167,6857.417v28.713" transform="translate(7888.817 -9601.563) rotate(90)" fill="none" stroke="#333" stroke-linecap="round" stroke-width="2"/><path d="M13763.167,6857.417v28.713" transform="translate(-5965.606 17925.688) rotate(-90)" fill="none" stroke="#333" stroke-linecap="round" stroke-width="2"/><path d="M13750,6886.25l13.626,13.625,13.625-13.625" transform="translate(-12802 -2778)" fill="none" stroke="#333" stroke-linecap="round" stroke-linejoin="round" stroke-width="2"/><path d="M13750,6886.25l13.626,13.625,13.625-13.625" transform="translate(14724.251 11101.125) rotate(180)" fill="none" stroke="#333" stroke-linecap="round" stroke-linejoin="round" stroke-width="2"/><path d="M13750,6886.25l13.626,13.625,13.625-13.625" transform="translate(7901.688 -9601.563) rotate(90)" fill="none" stroke="#333" stroke-linecap="round" stroke-linejoin="round" stroke-width="2"/><path d="M13750,6886.25l13.626,13.625,13.625-13.625" transform="translate(-5978.477 17925.688) rotate(-90)" fill="none" stroke="#333" stroke-linecap="round" stroke-linejoin="round" stroke-width="2"/><text transform="translate(944 4167)" fill="#333" font-size="20" font-family="BreeSerif-Regular, Bree Serif" letter-spacing="0.05em"><tspan x="0" y="0">co2</tspan></text><path d="M13763.167,6851.25v5.875" transform="translate(14724.25 10920.25) rotate(180)" fill="none" stroke="#333" stroke-linecap="round" stroke-width="2"/></g></svg>