<svg xmlns="http://www.w3.org/2000/svg" width="333.666" height="332.749" viewBox="0 0 333.666 332.749"><g transform="translate(-258.895 -2712.252)"><path d="M155.5,311c-1,0-2.023-.01-3.033-.029l18.218-19.278-17.652-17.522c.8.016,1.627.025,2.467.025a119.062,119.062,0,0,0,116.337-95.07l18.816-18.214,18.594,18.008c-.4,2.658-.874,5.322-1.405,7.919a154.572,154.572,0,0,1-23.4,55.6A155.182,155.182,0,0,1,155.5,311Zm-21.85-1.525h0c-3.174-.446-6.367-1-9.487-1.634a154.615,154.615,0,0,1-55.6-23.4A155.972,155.972,0,0,1,12.22,216.028a154.754,154.754,0,0,1-9.061-29.19A156.766,156.766,0,0,1,0,155.5c0-1.189.015-2.439.045-3.717l19.156,18.1L36.855,152.1c-.03,1.121-.048,2.265-.048,3.4,0,54.989,38.916,103.686,92.534,115.791l20.64,21.322L133.65,309.475Zm177.3-150.085h0l-20.3-19.181-16.461,16.582c0-.443.008-.865.008-1.291A119.065,119.065,0,0,0,179.143,39.166l-17.43-18.006L180.3,1.967c2.193.351,4.393.752,6.539,1.192a154.632,154.632,0,0,1,55.6,23.4,155.987,155.987,0,0,1,56.339,68.415,154.552,154.552,0,0,1,9.06,29.19A156.826,156.826,0,0,1,311,155.5c0,1.271-.016,2.58-.048,3.889ZM19.2,149.18h0L1.727,132.257c.4-2.694.884-5.417,1.432-8.1a154.623,154.623,0,0,1,23.4-55.6A155.96,155.96,0,0,1,94.972,12.219a154.943,154.943,0,0,1,29.19-9.061A156.514,156.514,0,0,1,155.5,0c1.792,0,3.615.032,5.416.093L141.01,21.161l15.762,15.648c-.393,0-.809-.007-1.272-.007-54.977,0-103.671,38.911-115.783,92.521L19.2,149.179Z" transform="translate(271 2722)" fill="none" stroke="#eee" stroke-linecap="round" stroke-linejoin="round" stroke-width="2"/><path d="M394.082,1908l29.588-29.589L453.259,1908" transform="translate(137.888 984.048)" fill="none" stroke="#eee" stroke-linecap="round" stroke-linejoin="round" stroke-width="2"/><path d="M0,29.589,29.588,0,59.177,29.589" transform="translate(319.486 2892.044) rotate(180)" fill="none" stroke="#eee" stroke-linecap="round" stroke-linejoin="round" stroke-width="2"/><path d="M0,29.589,29.589,0,59.177,29.589" transform="translate(411.851 2772.844) rotate(-90)" fill="none" stroke="#eee" stroke-linecap="round" stroke-linejoin="round" stroke-width="2"/><path d="M0,29.589,29.589,0,59.177,29.589" transform="translate(441.439 2984.41) rotate(90)" fill="none" stroke="#eee" stroke-linecap="round" stroke-linejoin="round" stroke-width="2"/><path d="M397.172,1907.667l64.764,56.013H351.661L303,1907.667Z" transform="translate(35.55 973.238)" fill="none" stroke="#eee" stroke-linecap="round" stroke-linejoin="round" stroke-width="2"/><path d="M10.5,0,75.266,56.013l-6.652,85.77L0,101.523Z" transform="translate(508.338 2936.917) rotate(180)" fill="none" stroke="#eee" stroke-linecap="round" stroke-linejoin="round" stroke-width="2"/><path d="M322,1906.5l.558,4.562,47.332,54.566H478.906l2.336-2.908" transform="translate(16.55 974.229)" fill="none" stroke="#eee" stroke-linejoin="round" stroke-width="2"/><path d="M445.167,1845.833l4.2,2.8" transform="translate(22.738 970.131)" fill="none" stroke="#eee" stroke-linecap="round" stroke-width="2"/><path d="M417.833,1832.166l68.441,41.66" transform="translate(21.365 970.495)" fill="none" stroke="#eee" stroke-width="2"/><path d="M412,1827.166l65.64,55.488" transform="translate(21.072 1049.012)" fill="none" stroke="#eee" stroke-width="2"/><path d="M403.75,1911.625H449.3l46.78,45.948H447.2Z" transform="translate(-25.298 973.437)" fill="none" stroke="#eee" stroke-linecap="round" stroke-linejoin="round" stroke-width="2"/><path d="M413.5,1922.375h19.036l18.51,20.611h-18.51Z" transform="translate(-48.963 973.977)" fill="none" stroke="#eee" stroke-linecap="round" stroke-linejoin="round" stroke-width="2"/><path d="M413.333,1892.533,459.544,1857" transform="translate(21.139 970.692)" fill="none" stroke="#eee" stroke-linecap="round" stroke-width="2"/><path d="M413.333,1892.91l57.938-43.41" transform="translate(29.54 991.32)" fill="none" stroke="#eee" stroke-linecap="round" stroke-width="2"/><path d="M413.333,1892.039l33.608-25.206" transform="translate(37.943 999.543)" fill="none" stroke="#eee" stroke-linecap="round" stroke-width="2"/><path d="M351.25,1933h12.078" transform="translate(23.526 974.511)" fill="none" stroke="#eee" stroke-linecap="round" stroke-width="2"/><path d="M370.917,1923.334h5.251l16.279,17.416h-5.865" transform="translate(24.515 974.025)" fill="none" stroke="#eee" stroke-linecap="round" stroke-linejoin="round" stroke-width="2"/><path d="M370.667,1917.667l14.277,15.425,16.18,17.482" transform="translate(24.502 973.74)" fill="none" stroke="#eee" stroke-linecap="round" stroke-linejoin="round" stroke-width="2"/><path d="M370.667,1917.667l14.277,15.425,16.18,17.482" transform="translate(31.853 973.74)" fill="none" stroke="#eee" stroke-linecap="round" stroke-linejoin="round" stroke-width="2"/><path d="M370.667,1917.667l14.277,15.425,16.18,17.482" transform="translate(40.256 973.74)" fill="none" stroke="#eee" stroke-linecap="round" stroke-linejoin="round" stroke-width="2"/><path d="M370.667,1917.667l14.277,15.425,16.18,17.482" transform="translate(48.657 973.74)" fill="none" stroke="#eee" stroke-linecap="round" stroke-linejoin="round" stroke-width="2"/></g></svg>