<svg xmlns="http://www.w3.org/2000/svg" width="329" height="289" viewBox="0 0 329 289"><g transform="translate(-212 -1159)"><path d="M233.941,140H32.518v0a32.829,32.829,0,1,1,12.627-63.36A18.447,18.447,0,0,1,77.3,60.711,70.262,70.262,0,0,1,147.063,0c38.865,0,70.373,31.339,70.373,70a69.907,69.907,0,0,1-1.375,13.836A30.961,30.961,0,1,1,233.941,140Z" transform="translate(275 1307)" fill="none" stroke="#eee" stroke-linecap="round" stroke-linejoin="round" stroke-width="2"/><path d="M9.728,46H72.815A10.578,10.578,0,0,0,83,35.214,10.57,10.57,0,0,0,72.663,24.427a9.933,9.933,0,0,0-3.8.753,6.31,6.31,0,0,0,.154-1.388,5.906,5.906,0,0,0-5.777-6.027,5.675,5.675,0,0,0-4.449,2.182C57.359,8.687,48.121,0,36.939,0,24.766,0,14.9,10.3,14.9,23a24.059,24.059,0,0,0,.431,4.546,9.414,9.414,0,0,0-5.6-1.849A9.946,9.946,0,0,0,0,35.848,9.947,9.947,0,0,0,9.728,46Z" transform="translate(213 1291)" fill="none" stroke="#eee" stroke-linecap="round" stroke-linejoin="round" stroke-width="2"/><path d="M15389.5,4068.915V4022s-11.131-1.909-16.131-7.325-8.428-11.592-8.083-18.167,1.749-13.167,8.083-19.083,16.917-8.75,24.167-6.333,15.25,7.917,18.25,19-4.5,22.333-9.417,26.083" transform="translate(-14906.286 -2743.424)" fill="none" stroke="#eee" stroke-linecap="round" stroke-width="2"/><path d="M15389.5,4031.158V4022" transform="translate(-14906.286 -2689.691)" fill="none" stroke="#eee" stroke-linecap="round" stroke-width="2"/><path d="M15429.07,4040.348V4022" transform="translate(-15088.04 -2727.548)" fill="none" stroke="#eee" stroke-linecap="round" stroke-width="2"/><path d="M15429.07,4053.01V4022" transform="translate(-15088.04 -2691.8)" fill="none" stroke="#eee" stroke-linecap="round" stroke-width="2"/><path d="M15429.1,4025.31V4022" transform="translate(-15088.07 -2704.51)" fill="none" stroke="#eee" stroke-linecap="round" stroke-width="2"/><path d="M15327.5,4063.52V3976" transform="translate(-14912.673 -2756.856)" fill="none" stroke="#eee" stroke-linecap="round" stroke-width="2"/><path d="M15327.5,3983.938V3976" transform="translate(-14912.673 -2771.51)" fill="none" stroke="#eee" stroke-linecap="round" stroke-width="2"/><g transform="translate(304 1221)" fill="none" stroke="#eee" stroke-width="2"><ellipse cx="37" cy="36.5" rx="37" ry="36.5" stroke="none"/><ellipse cx="37" cy="36.5" rx="36" ry="35.5" fill="none"/></g><g transform="translate(391 1159)" fill="none" stroke="#eee" stroke-width="2"><circle cx="23" cy="23" r="23" stroke="none"/><circle cx="23" cy="23" r="22" fill="none"/></g><circle cx="6.125" cy="6.125" r="6.125" transform="translate(473 1254)" fill="none" stroke="#eee" stroke-width="2"/><path d="M15394,4020.792v-20.959s2.324,4.837,5.9,4.837a7.458,7.458,0,0,0,5.236-1.713" transform="translate(-14908.698 -2760.856)" fill="none" stroke="#eee" stroke-linecap="round" stroke-linejoin="round" stroke-width="2"/><rect width="14" height="17" transform="translate(404 1176)" stroke-width="2" stroke="#eee" stroke-linecap="round" stroke-linejoin="round" fill="none"/><path d="M0,0H13.433V17.1H8.548V4.961H0Z" transform="translate(409.332 1171.11)" fill="none" stroke="#eee" stroke-linecap="round" stroke-linejoin="round" stroke-width="2"/><rect width="24" height="22" transform="translate(324 1247)" stroke-width="2" stroke="#eee" stroke-linecap="round" stroke-linejoin="round" fill="none"/><path d="M6.414,13.777,0,12.017V2.789L6.414.924,9.6,0V14.651Z" transform="translate(348.272 1250.665)" fill="none" stroke="#eee" stroke-linecap="round" stroke-linejoin="round" stroke-width="2"/><path d="M15348,3968s3.459,4.044,3.459,11.194a20.153,20.153,0,0,1-3.459,11.6" transform="translate(-14903.254 -2796.89)" fill="none" stroke="#eee" stroke-linecap="round" stroke-linejoin="round" stroke-width="2"/><path d="M0,0S3.459,4.044,3.459,11.194A20.153,20.153,0,0,1,0,22.8" transform="translate(384.533 1193.906) rotate(180)" fill="none" stroke="#eee" stroke-linecap="round" stroke-linejoin="round" stroke-width="2"/><path d="M15348,3968s5.559,6.5,5.559,17.991a32.389,32.389,0,0,1-5.559,18.645" transform="translate(-14895.757 -2803.809)" fill="none" stroke="#eee" stroke-linecap="round" stroke-linejoin="round" stroke-width="2"/><path d="M0,0S5.561,6.5,5.561,17.991A32.389,32.389,0,0,1,0,36.636" transform="translate(377.034 1200.826) rotate(180)" fill="none" stroke="#eee" stroke-linecap="round" stroke-linejoin="round" stroke-width="2"/></g></svg>