<svg xmlns="http://www.w3.org/2000/svg" xmlns:xlink="http://www.w3.org/1999/xlink" width="323.388" height="54.913" viewBox="0 0 323.388 54.913"><defs><clipPath id="a"><path d="M540.038,338.16s-14.354,1.486-37.181,3.622-40.05,18.118-28.816,33.4c1.63,2.217,8.933,1.8,9.917,4.347.691,1.787-.5,6.956,3.827,8.383,12.1,4,24.624,4.906,35.57-18.257C533.778,347.579,535.909,343.259,540.038,338.16Z" transform="translate(-470.514 -338.16)" fill="none"/></clipPath></defs><g transform="translate(-299.274 -307.775)"><g transform="translate(298.8 337.775)"><path d="M340.717,692.771V720.94h-3.051V692.957c0-11.452-6.094-17.464-16.531-17.464-12.005.008-19.288,7.766-19.288,19.574v25.861H298.8V673h2.973v11.741c3.047-7.39,9.973-12.1,19.671-12.1C333.144,672.64,340.717,679.566,340.717,692.771Z" transform="translate(-198.8 -699.215)" fill="#333"/><path d="M514.476,697.39H472.455c.186,12.466,9.144,21.057,21.336,21.057,6.279,0,12.191-2.311,15.884-7.112l1.939,2.032c-4.34,5.172-10.805,7.847-17.835,7.847-14.12,0-24.289-10.066-24.289-24.286s9.605-24.289,22.532-24.289c12.749,0,22.443,9.88,22.443,23.918ZM472.548,694.9h39.066c-.743-11.27-8.772-19.489-19.582-19.489C481.139,675.408,473.194,683.628,472.548,694.9Z" transform="translate(-306.067 -699.215)" fill="#333"/><path d="M635.05,696.92c0-14.224,10.066-24.29,23.55-24.29,13.577,0,23.55,10.066,23.55,24.29s-9.961,24.289-23.55,24.289C645.116,721.209,635.05,711.143,635.05,696.92Zm44.053,0c0-12.745-8.773-21.428-20.5-21.428s-20.5,8.687-20.5,21.428,8.777,21.518,20.5,21.518S679.1,709.668,679.1,696.92Z" transform="translate(-410.11 -699.209)" fill="#333"/><path d="M801.08,714.843l1.486-2.4c3.6,3.233,10.065,6.1,17.549,6.1,10.805,0,15.145-4.065,15.145-9.976,0-15.145-32.416-4.433-32.416-23.179,0-6.837,5.54-12.745,17.545-12.745,5.912,0,12.377,1.94,16.071,4.894l-1.572,2.4c-3.879-3.047-9.326-4.526-14.592-4.526-9.973,0-14.313,4.34-14.313,9.884,0,15.606,32.326,5.079,32.326,23.272,0,7.483-6.187,12.633-18.285,12.633C812.164,721.215,804.766,718.54,801.08,714.843Z" transform="translate(-514.449 -699.215)" fill="#333"/><path d="M496.944,391.2a20.266,20.266,0,0,1-13.217-4.43c-3.746-3.091-.414-6.529-2.661-7.985-2.783-1.8-6.5-.788-9.271-3.678-4.539-4.741-4.649-10.966-2.2-16.421,4.1-9.145,16.675-16.209,31.292-17.573,22.564-2.112,33.528-3.251,33.769-3.273,2.7-.358,3.271.84,2.28,2.159-3.827,5.4-5.007,7.976-15.182,29.52-6.364,13.469-14.106,20.736-23.01,21.6Q497.84,391.2,496.944,391.2Zm36.439-49.379c.869-1.63,2.265-3.332.34-3.141-4.5.45-14.712,1.484-32.776,3.174-14.347,1.351-26.673,8.228-30.669,17.136-2.332,5.2-1.213,8.7,2.505,13.757,1.322,1.8,5.986,3.354,8.816,5.511,2.476,1.891,2.078,5.016,4.514,7.033,4.012,3.321,7.447,3.113,11.605,3.113a15.955,15.955,0,0,0,3.136-.306c8.832-3.408,12.477-6.254,18.719-19.469,5.07-10.732,8.181-16.693,10.581-21.252C531.991,343.877,532,344.415,533.382,341.822Z" transform="translate(-461.229 -367.775)" fill="#333"/><path d="M440.693,544.31a2.322,2.322,0,0,1-.57-2.265l14.149-7.614a.309.309,0,1,1,.351.509L442.406,545C442.043,545.192,440.762,544.386,440.693,544.31Z" transform="translate(-439.549 -520.117)" fill="#333"/><g transform="translate(7.338 -29.913)" clip-path="url(#a)"><path d="M500.188,430.231c-.274-.162-6.729-4.027-7.929-11.421-.9-5.509,1.391-11.438,6.794-17.623a16.051,16.051,0,0,1,5.133-4.016c3-1.493,7.812-2.623,13.7.477,7.618,4.007,5.815,10.2,4.5,14.712-.651,2.235-1.214,4.165-.5,5.207,1.423,2.087,2.476,2.981,3.48,2.99h.016c1.036,0,2.2-.939,3.577-2.868,1.306-1.839,1.481-5.468.45-9.473-1.8-7.026-5.8-11.164-8.955-12.695-8.224-4-14.138-5.534-26.929,6.754a15.837,15.837,0,0,0-3.255,5.831c-1.063,3.377-1.533,8.76,2.274,15.288l-.644.376c-3.955-6.781-3.451-12.4-2.332-15.925a16.218,16.218,0,0,1,3.435-6.1c6.211-5.966,11.222-9.054,15.779-9.728,4.372-.646,8.021.9,12,2.836,3.3,1.605,7.495,5.91,9.354,13.181,1.094,4.277.88,8.05-.574,10.092-1.551,2.186-2.9,3.194-4.207,3.183-1.619-.016-2.927-1.6-4.091-3.314-.9-1.335-.3-3.422.4-5.84,1.315-4.5,2.949-10.117-4.129-13.841-4.5-2.371-8.886-2.528-13.021-.471a15.491,15.491,0,0,0-4.883,3.827l-.013.016c-5.252,6.009-7.481,11.731-6.628,17.01,1.139,7.044,7.508,10.865,7.571,10.9Z" transform="translate(-484.66 -379.777)" fill="#333"/><path d="M521.161,458.425a26.615,26.615,0,0,1-2.566-19.811,31.115,31.115,0,0,1,3.663-8.964l.626.41a30.972,30.972,0,0,0-3.568,8.757,25.878,25.878,0,0,0,2.494,19.244Z" transform="translate(-507.112 -409.053)" fill="#333"/><path d="M481.2,436.515s-.394-1.114-2.683-7.076c-2.161-5.628-.795-8.7-.324-9.507a2.929,2.929,0,0,1,2.026-1.547c2.076-.313,9.732-5.059,9.809-5.106l.394.635c-.32.2-7.864,4.874-10.09,5.212a2.2,2.2,0,0,0-1.486,1.182c-1.351,2.312-.675,6.094.376,8.863,2.3,5.988,2.674,7.055,2.69,7.1Z" transform="translate(-475.795 -396.369)" fill="#333"/><path d="M516.606,411.329c-2.582-1.659-6.88-6.351-6.644-19.149.119-6.36,2.627-11.353,6.711-13.35a8.7,8.7,0,0,1,9.28,1.049c4.108,3.068,3.465,7.121,2.783,11.412a20.762,20.762,0,0,0-.239,7.906c.786,3.435,2.735,5.421,5.491,5.592,3.458.225,7.319-2.5,8.613-6.056.968-2.663,1.351-8.1.171-13.325-1.045-4.678-3.7-11.015-10.405-14.633-11.767-6.339-19.406-6.452-25.545-.374-3.217,3.186-3.841,4.34-3.962,4.685.41-.061,1.923-.579,7-4.172,3.865-2.731,8.976-2.927,14.779-.569a33.408,33.408,0,0,1,7.627,4.392l-.47.583a33.319,33.319,0,0,0-7.458-4.289c-5.628-2.283-10.356-2.114-14.048.5a58.12,58.12,0,0,1-5.5,3.55c-1.481.8-2.224.952-2.569.54-.257-.3-.786-.937,4.073-5.747,6.414-6.351,14.316-6.279,26.425.248,6.956,3.748,9.7,10.295,10.779,15.126,1.256,5.628.777,11.063-.2,13.733-1.4,3.843-5.6,6.781-9.363,6.544-1.8-.11-5-1.063-6.171-6.171a21.338,21.338,0,0,1,.225-8.19c.675-4.237,1.254-7.9-2.49-10.7A7.983,7.983,0,0,0,517,379.49c-3.827,1.873-6.177,6.619-6.29,12.695-.079,4.3.376,14.7,6.3,18.5Z" transform="translate(-494.963 -359.087)" fill="#333"/><path d="M648.257,438.136l-.648-.369c.045-.081,4.556-8.3-1.459-18.516l.644-.381A21.548,21.548,0,0,1,649.9,432.5,15.92,15.92,0,0,1,648.257,438.136Z" transform="translate(-606.61 -400.7)" fill="#333"/><path d="M559.916,471.324c-8.17-3.937-11.436-11.355-9.455-21.45a11.6,11.6,0,0,1,3.152-6.13,5.706,5.706,0,0,1,4.777-1.769c2.69.45,5.164,3.71,4.052,11.452-.729,5.034,0,8.78,2.191,11.15a9.1,9.1,0,0,0,6.655,2.661l.05.747a9.765,9.765,0,0,1-7.247-2.893c-2.348-2.539-3.152-6.5-2.389-11.772,1.042-7.2-1.087-10.209-3.431-10.61-2.621-.45-6.078,2.22-7.076,7.308-1.918,9.725,1.207,16.86,9.037,20.633Z" transform="translate(-532.027 -418.558)" fill="#333"/><path d="M575.722,487.677a42.237,42.237,0,0,1-6.153-5.106c-4.014-4.086-5.745-7.848-5.142-11.177.851-4.692,2.461-7.769,3.985-7.654.718.052,1.6.795,1.713,4.041a12.132,12.132,0,0,1-.5,4.615c-.36,1.207-.621,2.08.675,6.794v.025c0,.038.817,3.787,5.853,7.864Zm-7.386-23.206c-.772,0-2.29,2.208-3.168,7.049-.795,4.388,3.174,9.005,6.556,12.053a11.842,11.842,0,0,1-2.15-4.212c-1.351-4.91-1.054-5.867-.657-7.193a11.552,11.552,0,0,0,.466-4.376c-.09-2.569-.675-3.3-1.02-3.321Z" transform="translate(-543.194 -435.466)" fill="#333"/><path d="M575.563,353.589c-10.794-7.008-18.46-3.2-18.541-3.163l-.342-.664a13.663,13.663,0,0,1,5.455-1.153c3.1-.1,8.019.576,13.836,4.354Z" transform="translate(-537.282 -346.25)" fill="#333"/><path d="M659.182,403.611l-.675-.32a19.507,19.507,0,0,0,1.664-11.754,26.6,26.6,0,0,0-3.958-9.833A41.163,41.163,0,0,0,648,372.42l.45-.59a42.04,42.04,0,0,1,8.37,9.455C661.674,388.892,662.487,396.612,659.182,403.611Z" transform="translate(-608.044 -364.25)" fill="#333"/><path d="M614.842,370.192l-.718-.214a27.1,27.1,0,0,0,.7-11.553,34.526,34.526,0,0,0-7.249-12.972,24.947,24.947,0,0,0-8.688-6.13,23.481,23.481,0,0,0-10.394-1.882l-.079-.743a23.775,23.775,0,0,1,10.727,1.92c5.311,2.224,12.468,7.429,16.4,19.6v.043A27.376,27.376,0,0,1,614.842,370.192Z" transform="translate(-561.869 -336.988)" fill="#333"/><path d="M642.62,361.057l-.653-.365c3.721-6.666,1.756-14.1,1.652-14.471-3.888-10.036-10.023-15.171-14.487-17.711a24.569,24.569,0,0,0-8.8-3.136l.068-.745a24.7,24.7,0,0,1,9.106,3.23c4.57,2.6,10.853,7.857,14.82,18.109V346C644.427,346.325,646.575,353.979,642.62,361.057Z" transform="translate(-586.603 -327.676)" fill="#333"/><path d="M671.194,348.667l-.743-.09a67.673,67.673,0,0,0,.464-10.855c-.984-6.754-5.43-11.556-8.987-14.392a34.349,34.349,0,0,0-7.618-4.606l.277-.693a34.182,34.182,0,0,1,7.789,4.7c3.674,2.927,8.264,7.879,9.28,14.9v.029A68.018,68.018,0,0,1,671.194,348.667Z" transform="translate(-612.933 -322.562)" fill="#333"/><path d="M699.372,348.421l-.675-.324a58.962,58.962,0,0,0,2.163-6.837c2.064-11.589-13.375-22.56-13.53-22.668l.428-.612a47.783,47.783,0,0,1,7.715,7.1c4.9,5.671,7.019,11.317,6.121,16.326v.027A59.635,59.635,0,0,1,699.372,348.421Z" transform="translate(-638.519 -322.523)" fill="#333"/><path d="M726.135,334.42c-.311-1.643-4.547-4.9-6.155-6.015l.428-.615c.617.43,6.038,4.253,6.461,6.49Z" transform="translate(-663.819 -330.125)" fill="#333"/><path d="M726.653,369.474l-.7-.252c1-2.749,2.94-9.327,3.114-9.906.239-4.775-7.823-9.68-7.9-9.725l.385-.642a29.33,29.33,0,0,1,4.217,3.2c2.818,2.591,4.181,5.034,4.052,7.254v.043l-.013.04C729.773,359.542,727.7,366.588,726.653,369.474Z" transform="translate(-664.734 -346.521)" fill="#333"/><path d="M755.647,355.538l-.676-.329c3.917-8.064-1.713-15.045-1.772-15.115l.576-.475a16.151,16.151,0,0,1,2.5,4.728A14.494,14.494,0,0,1,755.647,355.538Z" transform="translate(-689.56 -339.291)" fill="#333"/><path d="M767.2,360.534l-.745-.02c.106-3.956,4.3-9.068,4.484-9.284l.574.477C771.468,351.759,767.3,356.836,767.2,360.534Z" transform="translate(-699.828 -348.288)" fill="#333"/><path d="M770.788,344.346l-.72-.2v.016s.079-.509-.878-1.15l.419-.621C771.02,343.342,770.815,344.247,770.788,344.346Z" transform="translate(-701.951 -341.438)" fill="#333"/><path d="M473.759,497.144c-3.735-2.548-7.022-14.55-7.159-15.059l.723-.2c.031.122,3.35,12.242,6.857,14.633Z" transform="translate(-467.481 -449.533)" fill="#333"/><path d="M419.691,521.014a11.9,11.9,0,0,1-4.5-1.432h-.025a5.7,5.7,0,0,0-2.026-.54,9.455,9.455,0,0,0-5.295,1.146l-.342-.664c4.615-2.377,7.767-.752,8.028-.619,3.782,1.8,4.71,1.371,4.935,1.1.655-.79-.887-3.679-2.193-5.477l-.032-.052c-.185-.365-1.8-3.6-1.553-4.9l.734.137c-.144.779.822,3.1,1.472,4.4.621.858,3.393,4.87,2.145,6.369A1.621,1.621,0,0,1,419.691,521.014Z" transform="translate(-421.686 -470.989)" fill="#333"/><path d="M442.76,530.908c-1.317-1.162-1.943-4.142-1.97-4.277l.734-.151c0,.027.6,2.864,1.729,3.859Z" transform="translate(-447.482 -484.085)" fill="#333"/><path d="M521.257,554.837a15.013,15.013,0,0,1-8.687-3.748,22.061,22.061,0,0,1-3.44-3.548l.6-.45c.05.067,5.034,6.754,11.551,6.979Z" transform="translate(-500.436 -500.055)" fill="#333"/><path d="M483.605,528.354c-8.2,0-15.176-5.232-15.245-5.286a20.786,20.786,0,0,1-6.79-9.975l.721-.2a20.333,20.333,0,0,0,6.529,9.581c.056.036,7.317,5.484,15.6,5.117l.031.747C484.164,528.347,483.882,528.354,483.605,528.354Z" transform="translate(-463.583 -473.554)" fill="#333"/></g></g></g></svg>