<svg xmlns="http://www.w3.org/2000/svg" width="94.854" height="90.333" viewBox="0 0 94.854 90.333"><g transform="translate(0.001)"><path d="M97.481,0,43.97,86.588l6.63,3.745L104.111,3.745Z" transform="translate(-24.485)" fill="#999"/><path d="M154.815,112.057a20.881,20.881,0,0,0-6.692-4.33,22.707,22.707,0,0,0-16.632,0,20.766,20.766,0,0,0-6.687,4.33,20.385,20.385,0,0,0,0,29.133,20.7,20.7,0,0,0,6.687,4.334,22.645,22.645,0,0,0,16.632,0,20.829,20.829,0,0,0,6.692-4.33,20.385,20.385,0,0,0,0-29.133ZM151.2,131.246a14.021,14.021,0,0,1-2.712,3.864,12.28,12.28,0,0,1-17.358,0,13.835,13.835,0,0,1-2.712-3.864,10.946,10.946,0,0,1,0-9.244,13.814,13.814,0,0,1,2.712-3.86,12.28,12.28,0,0,1,17.358,0A14,14,0,0,1,151.2,122,10.946,10.946,0,0,1,151.2,131.246Z" transform="translate(-66.087 -59.109)" fill="#999"/><path d="M40.557,26.643a20.2,20.2,0,0,0-4.463-6.5,20.89,20.89,0,0,0-6.687-4.33,21.8,21.8,0,0,0-8.318-1.578,21.763,21.763,0,0,0-8.314,1.578,20.859,20.859,0,0,0-6.692,4.33,20.484,20.484,0,0,0,0,29.138,20.788,20.788,0,0,0,6.692,4.33,21.679,21.679,0,0,0,8.314,1.578,24.722,24.722,0,0,0,2.517-.133c.545-.062,1.09-.137,1.622-.23L5.286,85.8a.541.541,0,0,0,.191.767l6.554,3.714,24.09-39.25q1.267-2.083,2.4-4.117.674-1.21,1.228-2.468c.292-.536.563-1.086.811-1.657a19.215,19.215,0,0,0,1.1-3.359,21,21,0,0,0,.527-4.711,20.1,20.1,0,0,0-1.626-8.074ZM21.089,46.767a12.111,12.111,0,0,1-8.677-3.545A13.813,13.813,0,0,1,9.7,39.362a10.946,10.946,0,0,1,0-9.244,13.835,13.835,0,0,1,2.708-3.886A12.054,12.054,0,0,1,16.325,23.6a12.28,12.28,0,0,1,13.445,2.632,13.915,13.915,0,0,1,2.708,3.855,10.906,10.906,0,0,1,0,9.244,13.893,13.893,0,0,1-2.708,3.86,12.111,12.111,0,0,1-8.681,3.545Z" transform="translate(0 -7.929)" fill="#999"/></g></svg>