<svg xmlns="http://www.w3.org/2000/svg" width="541.857" height="541" viewBox="0 0 541.857 541"><g transform="translate(0.39)" opacity="0.25"><rect width="541" height="541" fill="none" opacity="0.25"/><path d="M6157.119,2773v15.94l42.146,25.06v46.7l44.994,23.921,42.716-23.921V2814l43.855-25.06,44.994,25.06,44.425-25.06,40.438,25.06v46.7l-40.438,23.921v45.564l-44.425,23.352-44.994-23.352" transform="translate(-6024.986 -2773)" fill="none" stroke="#999" stroke-width="2"/><path d="M0,0V15.94L42.146,41V87.7l44.994,23.921L129.857,87.7V41l43.855-25.06L218.706,41l44.425-25.06L303.569,41V87.7l-40.438,23.921v45.564L218.706,180.54l-44.994-23.352" transform="translate(408.996 541) rotate(180)" fill="none" stroke="#999" stroke-width="2"/><path d="M6320.723,2999.317v-44L6276,2928.627V2881.74l44.723-22.361,45.444,22.361,43.28-22.361v-46.887l11.541-6.492" transform="translate(-6015.238 -2770.294)" fill="none" stroke="#999" stroke-width="2"/><path d="M44.723,193.317v-44L0,122.627V75.74L44.723,53.379,90.167,75.74l43.28-22.361V6.492L144.988,0" transform="translate(280.367 505.294) rotate(180)" fill="none" stroke="#999" stroke-width="2"/><path d="M6266.214,2862.271,6237,2845.5" transform="translate(-6018.436 -2767.055)" fill="none" stroke="#999" stroke-width="2"/><path d="M6546.4,3213.42l-17.673-8.656v-49.051l-87.281-45.444v-23.083l-45.444-23.8v-46.165l23.8-10.82-23.8-12.984v-46.165l45.444-24.525V2878l-21.64,9.377v31.017" transform="translate(-6005.398 -2764.39)" fill="none" stroke="#999" stroke-width="2"/><path d="M150.4,335.42l-17.673-8.656V277.713L45.444,232.269V209.187L0,185.383V139.217L23.8,128.4,0,115.413V69.248L45.444,44.723V0L23.8,9.377V40.395" transform="translate(150.527 427.39) rotate(180)" fill="none" stroke="#999" stroke-width="2"/><path d="M6118.361,3128v31.017L6096,3171.28v49.051l22.361,10.82v-46.887" transform="translate(-6029.998 -2743.89)" fill="none" stroke="#999" stroke-width="2"/><path d="M6035.119,2831.333l23.314,11.541v12.984l-23.314-12.984" transform="translate(-6034.99 -2766.053)" fill="none" stroke="#999" stroke-width="2"/><path d="M6074.667,2811.333V2857.5l44,22.361,44-22.361" transform="translate(-6031.748 -2769.857)" fill="none" stroke="#999" stroke-width="2"/><path d="M0,0V46.166L44,68.527,88,46.166" transform="translate(372.207 404.307) rotate(180)" fill="none" stroke="#999" stroke-width="2"/><path d="M6422,3041.806l41.837-20.2V2974" transform="translate(-6003.266 -2756.518)" fill="none" stroke="#999" stroke-width="2"/><path d="M6470,3023l33.9,16.951" transform="translate(-5999.33 -2753.582)" fill="none" stroke="#999" stroke-width="2"/><path d="M6396,3137.75l45.444-23.083,46.165,23.083" transform="translate(-6005.398 -2744.984)" fill="none" stroke="#999" stroke-width="2"/><path d="M6318,3203.333v46.887l44.723,21.64,30.3-15.148" transform="translate(-6011.794 -2737.713)" fill="none" stroke="#999" stroke-width="2"/><path d="M6338.333,3239.4l22-14.066-22-10.82v-33.181" transform="translate(-6010.127 -2739.517)" fill="none" stroke="#999" stroke-width="2"/><path d="M6035.119,3049l43.692,26.509v44.362l23.263,12.443" transform="translate(-6034.99 -2750.368)" fill="none" stroke="#999" stroke-width="2"/><path d="M6174.119,3052.526l12.855,7.574,12.984-7.574V3006l42.2,23.8" transform="translate(-6023.592 -2753.894)" fill="none" stroke="#999" stroke-width="2"/><path d="M6541.273,3237.347l-37.87-20.017V3170.8l-44.9-23.8" transform="translate(-6000.273 -2742.332)" fill="none" stroke="#999" stroke-width="2"/><path d="M6507.5,3209.246,6535.632,3195" transform="translate(-5996.255 -2738.396)" fill="none" stroke="#999" stroke-width="2"/><path d="M6078,3246.667l31.919,18.041,13.8-6.59" transform="translate(-6031.474 -2734.16)" fill="none" stroke="#999" stroke-width="2"/><path d="M6217.333,2950.667l44,25.247" transform="translate(-6020.049 -2758.432)" fill="none" stroke="#999" stroke-width="2"/><path d="M6217.333,2977.609l45.444-19.476V2886" transform="translate(-6020.049 -2763.734)" fill="none" stroke="#999" stroke-width="2"/><path d="M6318,3174.171l21.64-10.1V3114.3l44-20.2v-48.329l-44-24.525v-46.165l44-23.083" transform="translate(-6011.794 -2758.322)" fill="none" stroke="#999" stroke-width="2"/><path d="M6121.805,3011.511l26.689-12.263-71.412-32.46v-24.525L6054,2930v116.856l44.723-22.361" transform="translate(-6033.442 -2760.126)" fill="none" stroke="#999" stroke-width="2"/><path d="M6501.333,2954.166V2908" transform="translate(-5996.761 -2761.93)" fill="none" stroke="#999" stroke-width="2"/><path d="M6097,3087.16v-50.493" transform="translate(-6029.916 -2751.38)" fill="none" stroke="#999" stroke-width="2"/><path d="M6157.119,3250.667v23.8" transform="translate(-6024.986 -2733.831)" fill="none" stroke="#999" stroke-width="2"/><path d="M6560.468,3243.8,6534.5,3230" transform="translate(-6533.959 -2735.526)" fill="none" stroke="#999" stroke-width="2"/><path d="M6548.757,3237.574,6534.5,3230" transform="translate(-6533.959 -2780.97)" fill="none" stroke="#999" stroke-width="2"/><path d="M6535.119,3197.132,6589.09,3169" transform="translate(-6533.908 -2741.61)" fill="none" stroke="#999" stroke-width="2"/><path d="M6478.25,2810l61.133,27.32" transform="translate(-5998.654 -2771.589)" fill="none" stroke="#999" stroke-width="2"/><path d="M6478.25,2810l28.629,13.705" transform="translate(-5965.88 -2746.162)" fill="none" stroke="#999" stroke-width="2"/><path d="M6527.145,2855.042,6492.25,2838" transform="translate(-5997.505 -2767.67)" fill="none" stroke="#999" stroke-width="2"/><path d="M6478.333,3062v24.886" transform="translate(-6068.977 -3062)" fill="none" stroke="#999" stroke-width="2"/></g></svg>